<svg width="57" height="55" viewBox="0 0 57 55" fill="none" xmlns="http://www.w3.org/2000/svg">
    <path d="M22.6025 50V20.8516H32.8125C36.3493 20.8516 39.0319 21.5322 40.8604 22.8936C42.6888 24.2415 43.603 26.2235 43.603 28.8394C43.603 30.2674 43.236 31.5286 42.502 32.623C41.7679 33.7041 40.7469 34.4982 39.439 35.0054C40.9338 35.3791 42.1082 36.1331 42.9624 37.2676C43.8299 38.402 44.2637 39.79 44.2637 41.4316C44.2637 44.2344 43.3695 46.3564 41.5811 47.7979C39.7926 49.2393 37.2435 49.9733 33.9336 50H22.6025ZM28.6084 37.3076V45.1753H33.7534C35.1681 45.1753 36.2692 44.8416 37.0566 44.1743C37.8574 43.4937 38.2578 42.5594 38.2578 41.3716C38.2578 38.7023 36.8765 37.3477 34.1138 37.3076H28.6084ZM28.6084 33.0635H33.0527C36.0824 33.0101 37.5972 31.8022 37.5972 29.4399C37.5972 28.1187 37.2101 27.1711 36.436 26.5972C35.6753 26.0099 34.4674 25.7163 32.8125 25.7163H28.6084V33.0635Z" fill="#AF0069"/>
    <path d="M22.6025 50H20.6025V52H22.6025V50ZM22.6025 20.8516V18.8516H20.6025V20.8516H22.6025ZM40.8604 22.8936L39.666 24.4978L39.6736 24.5034L40.8604 22.8936ZM42.502 32.623L44.1566 33.7466L44.1629 33.7371L42.502 32.623ZM39.439 35.0054L38.7159 33.1406L32.8429 35.4179L38.9539 36.9457L39.439 35.0054ZM42.9624 37.2676L41.3647 38.4706L41.3692 38.4765L41.3737 38.4825L42.9624 37.2676ZM41.5811 47.7979L42.8361 49.355L41.5811 47.7979ZM33.9336 50V52H33.9417L33.9497 51.9999L33.9336 50ZM28.6084 37.3076V35.3076H26.6084V37.3076H28.6084ZM28.6084 45.1753H26.6084V47.1753H28.6084V45.1753ZM37.0566 44.1743L38.3497 45.7001L38.3519 45.6982L37.0566 44.1743ZM34.1138 37.3076L34.1428 35.3078L34.1283 35.3076H34.1138V37.3076ZM28.6084 33.0635H26.6084V35.0635H28.6084V33.0635ZM33.0527 33.0635V35.0635H33.0704L33.088 35.0632L33.0527 33.0635ZM36.436 26.5972L35.2139 28.1803L35.2293 28.1922L35.2449 28.2038L36.436 26.5972ZM28.6084 25.7163V23.7163H26.6084V25.7163H28.6084ZM24.6025 50V20.8516H20.6025V50H24.6025ZM22.6025 22.8516H32.8125V18.8516H22.6025V22.8516ZM32.8125 22.8516C36.1413 22.8516 38.3263 23.5003 39.666 24.4978L42.0547 21.2893C39.7375 19.5641 36.5572 18.8516 32.8125 18.8516V22.8516ZM39.6736 24.5034C40.9081 25.4135 41.603 26.7488 41.603 28.8394H45.603C45.603 25.6981 44.4695 23.0695 42.0471 21.2837L39.6736 24.5034ZM41.603 28.8394C41.603 29.9054 41.3354 30.7718 40.841 31.509L44.1629 33.7371C45.1366 32.2855 45.603 30.6294 45.603 28.8394H41.603ZM40.8473 31.4995C40.3584 32.2196 39.6746 32.7689 38.7159 33.1406L40.162 36.8701C41.8192 36.2275 43.1774 35.1886 44.1566 33.7465L40.8473 31.4995ZM38.9539 36.9457C40.0447 37.2184 40.8101 37.734 41.3647 38.4706L44.5601 36.0646C43.4064 34.5323 41.8228 33.5398 39.924 33.0651L38.9539 36.9457ZM41.3737 38.4825C41.9356 39.2173 42.2637 40.1606 42.2637 41.4316H46.2637C46.2637 39.4195 45.7242 37.5868 44.5511 36.0527L41.3737 38.4825ZM42.2637 41.4316C42.2637 43.7764 41.5397 45.2625 40.326 46.2407L42.8361 49.355C45.1993 47.4504 46.2637 44.6924 46.2637 41.4316H42.2637ZM40.326 46.2407C39.0144 47.2977 36.9696 47.9755 33.9175 48.0001L33.9497 51.9999C37.5174 51.9712 40.5709 51.1808 42.8361 49.355L40.326 46.2407ZM33.9336 48H22.6025V52H33.9336V48ZM26.6084 37.3076V45.1753H30.6084V37.3076H26.6084ZM28.6084 47.1753H33.7534V43.1753H28.6084V47.1753ZM33.7534 47.1753C35.4664 47.1753 37.0866 46.7705 38.3497 45.7001L35.7636 42.6485C35.4518 42.9128 34.8699 43.1753 33.7534 43.1753V47.1753ZM38.3519 45.6982C39.6611 44.5854 40.2578 43.0606 40.2578 41.3716H36.2578C36.2578 42.0582 36.0537 42.4019 35.7613 42.6504L38.3519 45.6982ZM40.2578 41.3716C40.2578 39.7085 39.8234 38.1037 38.6222 36.9257C37.4332 35.7597 35.8178 35.3321 34.1428 35.3078L34.0848 39.3074C35.1724 39.3232 35.6291 39.5929 35.8215 39.7816C36.0015 39.9582 36.2578 40.3654 36.2578 41.3716H40.2578ZM34.1138 35.3076H28.6084V39.3076H34.1138V35.3076ZM28.6084 35.0635H33.0527V31.0635H28.6084V35.0635ZM33.088 35.0632C34.8106 35.0328 36.4595 34.6767 37.7079 33.6813C39.0458 32.6145 39.5972 31.0821 39.5972 29.4399H35.5972C35.5972 30.1601 35.3911 30.4128 35.2142 30.5538C34.9478 30.7662 34.3245 31.0408 33.0175 31.0638L33.088 35.0632ZM39.5972 29.4399C39.5972 27.7381 39.0838 26.0705 37.6272 24.9905L35.2449 28.2038C35.3365 28.2717 35.5972 28.4992 35.5972 29.4399H39.5972ZM37.6581 25.014C36.373 24.0219 34.6222 23.7163 32.8125 23.7163V27.7163C34.3127 27.7163 34.9776 27.9979 35.2139 28.1803L37.6581 25.014ZM32.8125 23.7163H28.6084V27.7163H32.8125V23.7163ZM26.6084 25.7163V33.0635H30.6084V25.7163H26.6084Z" fill="white"/>
    <path d="M18.1045 10.5225H24.8428V33.1631C24.8428 35.2445 24.3786 37.0863 23.4502 38.6885C22.5368 40.2757 21.2415 41.5036 19.5645 42.3721C17.8874 43.2406 15.9932 43.6748 13.8818 43.6748C10.4229 43.6748 7.72754 42.7988 5.7959 41.0469C3.86426 39.2799 2.89844 36.7868 2.89844 33.5674H9.68164C9.68164 35.1696 10.0186 36.3525 10.6924 37.1162C11.3662 37.8799 12.4294 38.2617 13.8818 38.2617C15.1696 38.2617 16.1953 37.82 16.959 36.9365C17.7227 36.0531 18.1045 34.7952 18.1045 33.1631V10.5225Z" fill="#AF0069"/>
    <path d="M18.1045 10.5225V8.52246H16.1045V10.5225H18.1045ZM24.8428 10.5225H26.8428V8.52246H24.8428V10.5225ZM23.4502 38.6885L21.7197 37.6858L21.7167 37.6909L23.4502 38.6885ZM5.7959 41.0469L4.44599 42.5226L4.45227 42.5283L5.7959 41.0469ZM2.89844 33.5674V31.5674H0.898438V33.5674H2.89844ZM9.68164 33.5674H11.6816V31.5674H9.68164V33.5674ZM16.959 36.9365L15.4459 35.6286L16.959 36.9365ZM18.1045 12.5225H24.8428V8.52246H18.1045V12.5225ZM22.8428 10.5225V33.1631H26.8428V10.5225H22.8428ZM22.8428 33.1631C22.8428 34.9369 22.4505 36.4246 21.7197 37.6858L25.1807 39.6912C26.3067 37.7479 26.8428 35.552 26.8428 33.1631H22.8428ZM21.7167 37.6909C21.0006 38.9353 19.9929 39.8979 18.6447 40.5961L20.4842 44.1481C22.4902 43.1092 24.0729 41.6161 25.1837 39.686L21.7167 37.6909ZM18.6447 40.5961C17.284 41.3007 15.7113 41.6748 13.8818 41.6748V45.6748C16.275 45.6748 18.4907 45.1804 20.4842 44.1481L18.6447 40.5961ZM13.8818 41.6748C10.7542 41.6748 8.59678 40.8871 7.13953 39.5654L4.45227 42.5283C6.8583 44.7105 10.0915 45.6748 13.8818 45.6748V41.6748ZM7.14579 39.5711C5.72084 38.2677 4.89844 36.3644 4.89844 33.5674H0.898438C0.898438 37.2092 2.00768 40.2922 4.446 42.5226L7.14579 39.5711ZM2.89844 35.5674H9.68164V31.5674H2.89844V35.5674ZM7.68164 33.5674C7.68164 35.391 8.05576 37.1509 9.19271 38.4395L12.1921 35.793C11.9813 35.5542 11.6816 34.9482 11.6816 33.5674H7.68164ZM9.19271 38.4395C10.3857 39.7916 12.107 40.2617 13.8818 40.2617V36.2617C12.7517 36.2617 12.3467 35.9682 12.1921 35.793L9.19271 38.4395ZM13.8818 40.2617C15.6834 40.2617 17.2867 39.6158 18.4721 38.2444L15.4459 35.6286C15.104 36.0242 14.6558 36.2617 13.8818 36.2617V40.2617ZM18.4721 38.2444C19.655 36.8759 20.1045 35.0856 20.1045 33.1631H16.1045C16.1045 34.5048 15.7903 35.2302 15.4459 35.6286L18.4721 38.2444ZM20.1045 33.1631V10.5225H16.1045V33.1631H20.1045Z" fill="white"/>
</svg>
