<svg xmlns="http://www.w3.org/2000/svg" viewBox="0 0 572.48 211.59"><defs><style>.cls-1,.cls-3{fill:#2ca55e;}.cls-2,.cls-4{fill:#5a2846;}.cls-3{font-size:88.94px;font-family:FashionFetishHeavy, Fashion Fetish Heavy;letter-spacing:-0.06em;}.cls-4{letter-spacing:-0.06em;}</style></defs><g id="Layer_2" data-name="Layer 2"><g id="Layer_15" data-name="Layer 15"><path class="cls-1" d="M55.86,113.26h24v33.79A42.45,42.45,0,0,1,72,172c-6.85,9.46-19.57,18.7-43.06,17.76V169s13.07,2.58,21.79-8.73a25.49,25.49,0,0,0,5.13-15.6Z"/><polygon class="cls-2" points="8.13 182.84 8.13 176.1 24.16 169.08 24.16 189.79 8.13 182.84"/><polygon class="cls-2" points="8.42 182.13 7.17 182.55 0 179.22 7.24 176.31 8.42 176.67 8.42 182.13"/><rect class="cls-1" x="55.86" y="64.3" width="23.97" height="43.64"/><rect class="cls-2" x="38.86" y="31.47" width="57.59" height="29.53" transform="translate(21.41 113.89) rotate(-90)"/><path class="cls-2" d="M63.49,13.68V1.29a19.35,19.35,0,0,1,10.6,0V3.45s9.16,2.87,11.49,5.39S93.3,29.31,94.2,63.78s0,47.41,0,47.41-4,5.2-6.11-.9v-8.62s-5.2-3.75-4.49-6.28S87.91,84,87.91,84s2.52-47.9-6.82-58.67S66.55,13.5,63.49,13.68Z"/><path class="cls-2" d="M74.09,1.29a43.69,43.69,0,0,0-21.2,0V19.42h21.2Z"/><rect class="cls-1" x="55.86" y="109.45" width="23.97" height="2.29" transform="translate(-0.42 0.26) rotate(-0.22)"/><text class="cls-3" transform="translate(83.77 176.01)">ob<tspan class="cls-4" x="133.85" y="0">plicant</tspan></text></g></g></svg>